<svg xmlns="http://www.w3.org/2000/svg" viewBox="0 0 1440 1200" fill="none">
  <defs>
    <radialGradient id="fade"><stop stop-color="white" stop-opacity=".18"/><stop offset=".72" stop-color="white" stop-opacity=".7"/><stop offset="1" stop-color="white"/></radialGradient>
    <mask id="edges"><rect width="1440" height="1200" fill="url(#fade)"/></mask>
  </defs>
  <g mask="url(#edges)" stroke="#d6d8d9" stroke-width="1.1" stroke-linecap="round" stroke-linejoin="round">
    <path d="M-30 135Q90 110 160 200T365 270Q435 206 510 110M160 200Q145 322 245 410T390 630Q340 730 235 795T155 1000M245 410Q120 430 20 355M365 270Q485 315 615 260T850 190Q972 203 1090 100T1455 65M615 260Q627 435 735 495T970 580Q1105 523 1170 360T1370 260M970 580Q916 734 1080 825T1360 955M1080 825Q1010 1020 1120 1205M390 630Q560 610 690 765T895 1040M690 765Q600 960 450 1010T305 1210M155 1000Q20 968-20 1110M1170 360Q1242 440 1400 450M1360 955Q1340 1100 1450 1140"/>
    <path d="M160 200L91 183 51 205M91 183L74 139M160 200L182 140 236 101M182 140L157 87M365 270L389 340 361 387M389 340L447 352M245 410L186 482 195 532M186 482L145 501M390 630L450 697 496 702M450 697L443 748M235 795L157 755 111 771M157 755L138 712M155 1000L224 1054 276 1047M224 1054L220 1093M615 260L560 201 566 145M560 201L509 196M735 495L798 424 848 414M798 424L800 377M850 190L915 125 934 69M915 125L970 139M1090 100L1120 192 1180 211M1120 192L1094 242M1170 360L1090 326 1050 340M1090 326L1080 279M970 580L1015 640 1062 644M1015 640L998 689M1080 825L1160 755 1225 750M1160 755L1168 709M1360 955L1407 896 1459 871M690 765L730 829 774 846M730 829L706 880M450 1010L387 961 334 969M387 961L382 916M895 1040L953 1117 1000 1140M953 1117L922 1169"/>
    <g fill="#d6d8d9" stroke="white" stroke-width="2">
      <circle cx="160" cy="200" r="5"/><circle cx="365" cy="270" r="4"/><circle cx="245" cy="410" r="5"/><circle cx="390" cy="630" r="5"/><circle cx="235" cy="795" r="4"/><circle cx="155" cy="1000" r="5"/><circle cx="615" cy="260" r="5"/><circle cx="735" cy="495" r="4"/><circle cx="850" cy="190" r="4"/><circle cx="1090" cy="100" r="5"/><circle cx="1170" cy="360" r="5"/><circle cx="970" cy="580" r="5"/><circle cx="1080" cy="825" r="5"/><circle cx="1360" cy="955" r="4"/><circle cx="690" cy="765" r="5"/><circle cx="450" cy="1010" r="5"/><circle cx="895" cy="1040" r="4"/>
    </g>
  </g>
</svg>
